<?xml version="1.0" encoding="UTF-8" standalone="no"?>
<!DOCTYPE svg PUBLIC "-//W3C//DTD SVG 1.1//EN" "http://www.w3.org/Graphics/SVG/1.1/DTD/svg11.dtd">
<svg width="100%" height="100%" viewBox="0 0 165 29" version="1.1" xmlns="http://www.w3.org/2000/svg" xmlns:xlink="http://www.w3.org/1999/xlink" xml:space="preserve" xmlns:serif="http://www.serif.com/" style="fill-rule:evenodd;clip-rule:evenodd;stroke-linejoin:round;stroke-miterlimit:2;">
    <g transform="matrix(2.35945,0,0,2.35945,-0.667081,-7.50305)">
        <path d="M3.18,13.02L2.32,13.02C2.193,13.02 2.117,12.953 2.09,12.82L0.29,6.08C0.263,5.947 0.31,5.88 0.43,5.88L1.15,5.88C1.27,5.88 1.343,5.947 1.37,6.08L2.73,11.79L2.81,11.79L4.26,6.08C4.287,5.947 4.36,5.88 4.48,5.88L5.12,5.88C5.253,5.88 5.34,5.947 5.38,6.08L6.78,11.79L6.86,11.79L8.23,6.08C8.257,5.947 8.333,5.88 8.46,5.88L9.17,5.88C9.29,5.88 9.337,5.947 9.31,6.08L7.52,12.82C7.493,12.953 7.413,13.02 7.28,13.02L6.41,13.02C6.29,13.02 6.217,12.953 6.19,12.82L4.83,7.25L4.76,7.25L3.42,12.82C3.387,12.953 3.307,13.02 3.18,13.02ZM13.23,13.02L12.5,13.02C11.86,13.02 11.353,12.837 10.98,12.47C10.613,12.11 10.43,11.603 10.43,10.95L10.43,7.95C10.43,7.297 10.613,6.79 10.98,6.43C11.353,6.063 11.86,5.88 12.5,5.88L15.54,5.88C15.673,5.88 15.74,5.947 15.74,6.08L15.74,12.82C15.74,12.953 15.673,13.02 15.54,13.02L14.91,13.02C14.777,13.02 14.71,12.953 14.71,12.82L14.71,12.28L14.66,12.28C14.427,12.773 13.95,13.02 13.23,13.02ZM14.71,10.84L14.71,6.9C14.71,6.82 14.663,6.78 14.57,6.78L12.61,6.78C11.837,6.78 11.45,7.183 11.45,7.99L11.45,10.91C11.45,11.717 11.837,12.12 12.61,12.12L13.41,12.12C13.83,12.12 14.153,12.01 14.38,11.79C14.6,11.563 14.71,11.247 14.71,10.84ZM18.56,13.02L17.93,13.02C17.803,13.02 17.74,12.953 17.74,12.82L17.74,3.37C17.74,3.243 17.803,3.18 17.93,3.18L18.56,3.18C18.693,3.18 18.76,3.243 18.76,3.37L18.76,12.82C18.76,12.953 18.693,13.02 18.56,13.02ZM24.81,5.88L25.51,5.88C25.583,5.88 25.633,5.9 25.66,5.94C25.68,5.987 25.667,6.04 25.62,6.1L23.56,9.3L23.56,9.35L25.83,12.8C25.87,12.86 25.873,12.913 25.84,12.96C25.813,13 25.763,13.02 25.69,13.02L25.03,13.02C24.857,13.02 24.727,12.953 24.64,12.82L22.48,9.49C22.427,9.397 22.427,9.3 22.48,9.2L24.47,6.06C24.53,5.94 24.643,5.88 24.81,5.88ZM21.59,13.02L20.96,13.02C20.827,13.02 20.76,12.953 20.76,12.82L20.76,3.37C20.76,3.243 20.827,3.18 20.96,3.18L21.59,3.18C21.717,3.18 21.78,3.243 21.78,3.37L21.78,12.82C21.78,12.953 21.717,13.02 21.59,13.02Z" style="fill:#FBBF24;fill-rule:nonzero;"/>
        
        <path d="M27.23,6.78L26.46,6.78C26.327,6.78 26.26,6.717 26.26,6.59L26.26,6.08C26.26,5.947 26.327,5.88 26.46,5.88L27.23,5.88C27.323,5.88 27.37,5.837 27.37,5.75L27.37,4.55C27.37,4.417 27.437,4.35 27.57,4.35L28.2,4.35C28.32,4.35 28.38,4.417 28.38,4.55L28.38,5.75C28.38,5.837 28.43,5.88 28.53,5.88L30.02,5.88C30.16,5.88 30.23,5.947 30.23,6.08L30.23,6.59C30.23,6.717 30.16,6.78 30.02,6.78L28.53,6.78C28.43,6.78 28.38,6.82 28.38,6.9L28.38,10.93C28.38,11.723 28.79,12.12 29.61,12.12L30.16,12.12C30.3,12.12 30.37,12.187 30.37,12.32L30.37,12.84C30.37,12.96 30.3,13.02 30.16,13.02L29.48,13.02C28.84,13.02 28.327,12.84 27.94,12.48C27.56,12.12 27.37,11.62 27.37,10.98L27.37,6.9C27.37,6.82 27.323,6.78 27.23,6.78ZM32.68,13.02L32.05,13.02C31.917,13.02 31.85,12.953 31.85,12.82L31.85,3.37C31.85,3.243 31.917,3.18 32.05,3.18L32.68,3.18C32.807,3.18 32.87,3.243 32.87,3.37L32.87,6.62L32.93,6.62C33.163,6.127 33.64,5.88 34.36,5.88L35.14,5.88C35.773,5.88 36.267,6.063 36.62,6.43C36.98,6.79 37.16,7.297 37.16,7.95L37.16,12.82C37.16,12.953 37.093,13.02 36.96,13.02L36.33,13.02C36.197,13.02 36.13,12.953 36.13,12.82L36.13,7.99C36.13,7.183 35.74,6.78 34.96,6.78L34.17,6.78C33.75,6.78 33.43,6.89 33.21,7.11C32.983,7.337 32.87,7.653 32.87,8.06L32.87,12.82C32.87,12.953 32.807,13.02 32.68,13.02ZM39.84,13.02L39.21,13.02C39.083,13.02 39.02,12.953 39.02,12.82L39.02,6.08C39.02,5.947 39.083,5.88 39.21,5.88L39.84,5.88C39.973,5.88 40.04,5.947 40.04,6.08L40.04,6.64L40.1,6.64C40.193,6.433 40.37,6.253 40.63,6.1C40.89,5.953 41.197,5.88 41.55,5.88L42.1,5.88C42.22,5.88 42.28,5.947 42.28,6.08L42.28,6.59C42.28,6.657 42.267,6.707 42.24,6.74C42.213,6.773 42.167,6.787 42.1,6.78L41.34,6.78C40.92,6.78 40.6,6.903 40.38,7.15C40.153,7.403 40.04,7.75 40.04,8.19L40.04,12.82C40.04,12.953 39.973,13.02 39.84,13.02ZM46.68,13.02L45.47,13.02C44.83,13.02 44.323,12.837 43.95,12.47C43.583,12.11 43.4,11.603 43.4,10.95L43.4,7.95C43.4,7.297 43.583,6.79 43.95,6.43C44.323,6.063 44.83,5.88 45.47,5.88L46.68,5.88C47.32,5.88 47.827,6.063 48.2,6.43C48.567,6.79 48.75,7.297 48.75,7.95L48.75,10.95C48.75,11.603 48.567,12.11 48.2,12.47C47.827,12.837 47.32,13.02 46.68,13.02ZM45.58,12.12L46.56,12.12C47.347,12.12 47.74,11.72 47.74,10.92L47.74,7.98C47.74,7.18 47.347,6.78 46.56,6.78L45.58,6.78C44.8,6.78 44.41,7.18 44.41,7.98L44.41,10.92C44.41,11.72 44.8,12.12 45.58,12.12ZM53.27,13.02L52.49,13.02C51.85,13.02 51.353,12.837 51,12.47C50.647,12.11 50.47,11.603 50.47,10.95L50.47,6.08C50.47,5.947 50.537,5.88 50.67,5.88L51.3,5.88C51.427,5.88 51.49,5.947 51.49,6.08L51.49,10.91C51.49,11.717 51.877,12.12 52.65,12.12L53.45,12.12C53.87,12.12 54.193,12.01 54.42,11.79C54.64,11.563 54.75,11.247 54.75,10.84L54.75,6.08C54.75,5.947 54.817,5.88 54.95,5.88L55.58,5.88C55.713,5.88 55.78,5.947 55.78,6.08L55.78,12.82C55.78,12.953 55.713,13.02 55.58,13.02L54.95,13.02C54.817,13.02 54.75,12.953 54.75,12.82L54.75,12.28L54.7,12.28C54.467,12.773 53.99,13.02 53.27,13.02ZM60.41,12.64L59.63,12.64C58.99,12.64 58.493,12.46 58.14,12.1C57.787,11.733 57.61,11.223 57.61,10.57L57.61,7.95C57.61,7.297 57.793,6.79 58.16,6.43C58.533,6.063 59.04,5.88 59.68,5.88L62.72,5.88C62.853,5.88 62.92,5.947 62.92,6.08L62.92,13.02C62.92,13.667 62.733,14.173 62.36,14.54C61.993,14.907 61.487,15.09 60.84,15.09L58.27,15.09C58.13,15.09 58.06,15.027 58.06,14.9L58.06,14.38C58.06,14.247 58.13,14.18 58.27,14.18L60.72,14.18C61.5,14.18 61.89,13.78 61.89,12.98L61.89,11.9L61.84,11.9C61.593,12.393 61.117,12.64 60.41,12.64ZM61.89,10.46L61.89,6.9C61.89,6.82 61.843,6.78 61.75,6.78L59.81,6.78C59.023,6.78 58.63,7.183 58.63,7.99L58.63,10.53C58.63,11.343 59.023,11.75 59.81,11.75L60.59,11.75C61.01,11.75 61.333,11.637 61.56,11.41C61.78,11.183 61.89,10.867 61.89,10.46ZM65.67,13.02L65.04,13.02C64.913,13.02 64.85,12.953 64.85,12.82L64.85,3.37C64.85,3.243 64.913,3.18 65.04,3.18L65.67,3.18C65.803,3.18 65.87,3.243 65.87,3.37L65.87,6.62L65.93,6.62C66.163,6.127 66.637,5.88 67.35,5.88L68.14,5.88C68.773,5.88 69.267,6.063 69.62,6.43C69.973,6.79 70.15,7.297 70.15,7.95L70.15,12.82C70.15,12.953 70.087,13.02 69.96,13.02L69.33,13.02C69.197,13.02 69.13,12.953 69.13,12.82L69.13,7.99C69.13,7.183 68.74,6.78 67.96,6.78L67.17,6.78C66.75,6.78 66.43,6.89 66.21,7.11C65.983,7.337 65.87,7.653 65.87,8.06L65.87,12.82C65.87,12.953 65.803,13.02 65.67,13.02Z" style="fill:#DDDDDD;fill-rule:nonzero;"/>
    </g>
</svg>
